<svg width="25" height="25" viewBox="0 0 25 25" fill="none" xmlns="http://www.w3.org/2000/svg">
<g opacity="0.8">
<path d="M15.2029 15.2026H7.43262V15.8783H15.2029V15.2026Z" fill="#D9D9D9"/>
<path d="M15.2029 13.1758H7.43262V13.8515H15.2029V13.1758Z" fill="#D9D9D9"/>
<path d="M15.2029 11.1487H7.43262V12.1622H15.2029V11.1487Z" fill="#D9D9D9"/>
<path d="M15.2029 17.2297H7.43262V17.9054H15.2029V17.2297Z" fill="#D9D9D9"/>
<path d="M12.5 0C5.59644 0 0 5.59644 0 12.5C0 19.4036 5.59644 25 12.5 25C19.4036 25 25 19.4036 25 12.5C25 5.59644 19.4036 0 12.5 0ZM16.8038 17.6631V19.1819C16.8038 20.0207 16.1238 20.7007 15.2854 20.7007H7.12123C6.28238 20.7007 5.60245 20.0207 5.60245 19.1819V7.98041C5.60245 7.14156 6.28221 6.46163 7.12123 6.46163H15.2853C16.1242 6.46163 16.8039 7.14156 16.8037 7.98066C16.8038 7.98066 16.8038 9.49919 16.8038 9.49919V17.6631ZM18.7492 15.7178V17.2359C18.7492 17.9224 18.2936 18.502 17.6683 18.6901V17.663V9.49894V7.98041C17.6683 6.6663 16.5993 5.59711 15.2854 5.59711H7.61257C7.80082 4.97185 8.38008 4.51617 9.06677 4.51617H17.2308C18.0693 4.51617 18.7492 5.19635 18.749 6.0352V7.55382H18.7492V15.7178Z" fill="#D9D9D9"/>
<path d="M15.2029 9.12158H7.43262V10.1351H15.2029V9.12158Z" fill="#D9D9D9"/>
</g>
</svg>
