<svg width="25" height="25" viewBox="0 0 25 25" fill="none" xmlns="http://www.w3.org/2000/svg">
<path d="M7.33797 8.67236C9.27697 13.167 13.6101 14.3398 17.4332 15.3747C19.8731 16.0351 22.2082 16.6684 23.6701 18.1064C26.6477 12.1851 24.4764 4.9082 18.6425 1.61588C15.1624 -0.348191 11.1421 -0.463498 7.71518 0.953737C7.01543 2.10388 5.73687 4.96094 7.33797 8.67236Z" fill="#AEC0CD"/>
<path d="M4.61999 17.0521C1.58416 13.7733 1.08103 10.0602 1.19351 7.52261C1.19938 7.38912 1.20763 7.25653 1.21723 7.12451C-1.59082 13.0031 0.598675 20.135 6.35718 23.3848C7.15123 23.833 7.97352 24.1839 8.81026 24.4433C8.54531 22.8599 7.60749 20.2786 4.61999 17.0521Z" fill="#AEC0CD"/>
<path d="M16.9902 17.0098C13.005 15.9312 8.04502 14.5887 5.78212 9.34339C4.55326 6.49469 4.75395 4.05188 5.28689 2.29053C4.70606 2.70026 4.15685 3.16228 3.64672 3.67456C3.3759 4.41486 2.93782 5.92696 2.87921 7.76138C2.77847 10.9158 3.78225 13.6544 5.86253 15.9011C9.50811 19.8384 10.4131 23.0029 10.5711 24.8514C15.2026 25.5738 19.9905 23.6323 22.7633 19.6318C21.694 18.284 19.4899 17.6864 16.9902 17.0098Z" fill="#AEC0CD"/>
</svg>
