<svg width="56" height="53" viewBox="0 0 56 53" fill="none" xmlns="http://www.w3.org/2000/svg">
<path d="M45.5439 13.8425C44.9451 10.1991 43.1832 6.87408 40.4886 4.35083C37.4946 1.54461 33.6023 0 29.5488 0C26.4166 0 23.365 0.919689 20.751 2.65295C18.5745 4.09143 16.7666 6.03693 15.4884 8.32436C14.9356 8.21824 14.3599 8.15929 13.7841 8.15929C8.88999 8.15929 4.90561 12.2389 4.90561 17.2501C4.90561 17.8986 4.97471 18.5235 5.08986 19.1366C1.92309 21.4948 0 25.2914 0 29.3357C0 32.6018 1.1861 35.7735 3.35102 38.285C5.57351 40.8554 8.50997 42.3764 11.6422 42.5533C11.6767 42.5533 11.6998 42.5533 11.7343 42.5533H21.6377C22.5013 42.5533 23.1923 41.8458 23.1923 40.9615C23.1923 40.0772 22.5013 39.3697 21.6377 39.3697H11.7804C7.07053 39.075 3.10919 34.4883 3.10919 29.3239C3.10919 25.9871 4.85955 22.8743 7.68086 21.1882C8.33724 20.7991 8.61361 19.9855 8.36027 19.2545C8.12996 18.6178 8.01481 17.9457 8.01481 17.2265C8.01481 13.9722 10.6058 11.3192 13.7841 11.3192C14.4635 11.3192 15.1314 11.4372 15.7532 11.673C16.5133 11.956 17.3539 11.6022 17.6994 10.8594C19.8528 6.17842 24.505 3.15996 29.5604 3.15996C36.3545 3.15996 41.9626 8.37152 42.6074 15.281C42.6765 16.0002 43.2063 16.578 43.8972 16.6959C49.0216 17.592 52.8908 22.438 52.8908 27.968C52.8908 33.828 48.3882 38.9217 42.8378 39.358H34.3508C33.4871 39.358 32.7962 40.0654 32.7962 40.9497C32.7962 41.834 33.4871 42.5415 34.3508 42.5415H42.8953C42.9299 42.5415 42.9644 42.5415 43.0105 42.5415C46.5227 42.2821 49.8046 40.6314 52.2459 37.8723C54.6757 35.1368 56 31.6231 56 27.968C55.9885 21.3533 51.578 15.4696 45.5439 13.8425Z" fill="#332233" fill-opacity="0.5"/>
<path d="M37.3332 30.845C37.9436 30.2201 37.9436 29.2178 37.3332 28.5929L29.0996 20.1624C28.8117 19.8677 28.4087 19.6908 28.0057 19.6908C27.6026 19.6908 27.1996 19.8559 26.9117 20.1624L18.6781 28.5929C18.0678 29.2178 18.0678 30.2201 18.6781 30.845C18.9775 31.1515 19.3805 31.3166 19.7721 31.3166C20.1636 31.3166 20.5666 31.1633 20.866 30.845L26.4511 25.1264V51.4083C26.4511 52.2926 27.142 53 28.0057 53C28.8693 53 29.5603 52.2926 29.5603 51.4083V25.1264L35.1453 30.845C35.7441 31.4699 36.7229 31.4699 37.3332 30.845Z" fill="#332233" fill-opacity="0.5"/>
</svg>
