<svg width="25" height="25" viewBox="0 0 25 25" fill="none" xmlns="http://www.w3.org/2000/svg">
<path d="M12.4998 0C5.59643 0 0 5.59659 0 12.4998C0 19.403 5.59643 25 12.4998 25C19.4032 25 25 19.403 25 12.4998C25 5.59659 19.4032 0 12.4998 0ZM18.6869 13.8683C17.2719 15.4405 13.0994 18.8366 12.9223 18.9803C12.7982 19.0812 12.6485 19.1325 12.4998 19.1253C12.4953 19.1256 12.4905 19.1256 12.4857 19.1256C12.342 19.1256 12.1974 19.078 12.0772 18.9803C11.9002 18.8366 7.72813 15.4404 6.31352 13.8685C4.7625 12.1444 4.77266 9.66466 6.33711 8.10022C7.93388 6.50319 10.5325 6.50319 12.1294 8.10022L12.5 8.47089L12.871 8.09997C14.4677 6.50319 17.0661 6.50336 18.6634 8.09997C20.2275 9.66474 20.2377 12.1445 18.6869 13.8683Z" fill="#D9D9D9"/>
</svg>
