<svg width="19" height="19" viewBox="0 0 19 19" fill="none" xmlns="http://www.w3.org/2000/svg">
<path d="M9.5 0C4.26185 0 0 4.26148 0 9.5C0 14.7385 4.26185 19 9.5 19C14.7382 19 19 14.7385 19 9.5C19 4.26148 14.7382 0 9.5 0ZM9.5 18.2692C4.66487 18.2692 0.730769 14.3351 0.730769 9.5C0.730769 4.66487 4.66487 0.730769 9.5 0.730769C14.3351 0.730769 18.2692 4.66487 18.2692 9.5C18.2692 14.3351 14.3351 18.2692 9.5 18.2692Z" fill="#00599D"/>
<path d="M14.0676 9.13462H9.86564V5.11538C9.86564 4.91333 9.70195 4.75 9.50026 4.75C9.29857 4.75 9.13487 4.91333 9.13487 5.11538V9.13462H4.93295C4.73126 9.13462 4.56757 9.29794 4.56757 9.5C4.56757 9.70206 4.73126 9.86538 4.93295 9.86538H9.13487V14.25C9.13487 14.4521 9.29857 14.6154 9.50026 14.6154C9.70195 14.6154 9.86564 14.4521 9.86564 14.25V9.86538H14.0676C14.2693 9.86538 14.433 9.70206 14.433 9.5C14.433 9.29794 14.2693 9.13462 14.0676 9.13462Z" fill="#00599D"/>
</svg>
