<svg width="25" height="25" viewBox="0 0 25 25" fill="none" xmlns="http://www.w3.org/2000/svg">
<path d="M12.4998 0C5.59643 0 0 5.59656 0 12.4999C0 19.403 5.59643 25 12.4998 25C19.4032 25 25 19.403 25 12.4999C25 5.59639 19.4032 0 12.4998 0ZM12.5379 18.3971V18.3969H12.4615H7.12212C7.12212 14.4922 10.5515 14.4931 11.3125 13.4721L11.3996 13.0065C10.3304 12.4647 9.57566 11.1584 9.57566 9.63051C9.57566 7.61766 10.885 5.98564 12.4998 5.98564C14.1146 5.98564 15.4239 7.61766 15.4239 9.63051C15.4239 11.1454 14.6826 12.4435 13.6276 12.994L13.7268 13.5231C14.5617 14.4946 17.877 14.5579 17.877 18.3971H12.5379Z" fill="#D9D9D9"/>
</svg>
