<svg width="36" height="31" viewBox="0 0 36 31" fill="none" xmlns="http://www.w3.org/2000/svg">
<path d="M36 0H0V27H21.7829V24.2693C20.5639 23.0867 19.8015 21.4084 19.8015 19.55C19.8015 15.9764 22.6192 13.0691 26.0826 13.0691C29.5461 13.0691 32.3635 15.9764 32.3635 19.55C32.3635 21.4084 31.6011 23.0867 30.3824 24.2693V27H36V0ZM28.6122 4.35627V6.53271H7.38776V4.35627H28.6122ZM4.22122 18.2872V16.1107H14.4816V18.2872H4.22122ZM14.4816 20.4673V22.6437H4.22122V20.4673H14.4816ZM31.7788 10.8893H4.22122V8.71283H31.7788V10.8893Z" fill="white"/>
<path d="M28 31V25C27.3768 25.2618 26.7029 25.4052 26 25.4052C25.2968 25.4052 24.6229 25.2618 24 25V31L26 29.8998L28 31Z" fill="white"/>
<path d="M22 19.5001C22 21.9815 23.7945 24 26.0001 24C28.2057 24 30 21.9815 30 19.5001C30 17.0188 28.2057 15 26.0001 15C23.7945 15 22 17.0188 22 19.5001Z" fill="white"/>
</svg>
