<svg width="36" height="24" viewBox="0 0 36 24" fill="none" xmlns="http://www.w3.org/2000/svg">
<path d="M35.3792 24H0.620718C0.277945 24 0 23.7172 0 23.3684V0.631607C0 0.282821 0.277945 0 0.620718 0H35.3793C35.7221 0 36 0.282821 36 0.631607V23.3684C35.9999 23.7172 35.722 24 35.3792 24Z" fill="#41479B"/>
<path d="M35.9999 0.631607C35.9999 0.282821 35.7219 0 35.3791 0H32.6022L21.1033 7.66593V0H14.8964V7.66593L3.39763 0H0.620716C0.277944 0 0 0.282821 0 0.631607V2.26507L9.86544 8.84207H0V15.1579H9.86544L0 21.7349V23.3684C0 23.7172 0.277944 24 0.620716 24H3.3977L14.8966 16.3341V24H21.1034V16.3341L32.6023 24H35.3793C35.7221 24 36 23.7172 36 23.3684V21.7349L26.1346 15.1579H35.9999V8.84214H26.1344L35.9999 2.26507V0.631607Z" fill="#F5F5F5"/>
<path d="M36 10.1053H19.8621V0H16.1379V10.1053H0V13.8947H16.1379V24H19.8621V13.8947H36V10.1053Z" fill="#FF4B55"/>
<path d="M12.6961 15L0 23.4473C0.0444048 23.7577 0.294137 24 0.609375 24H1.47324L15 15.0001H12.6961V15V15Z" fill="#FF4B55"/>
<path d="M24.2924 15H22L35.4396 24C35.7528 23.9656 36 23.7017 36 23.3694V22.8401L24.2924 15Z" fill="#FF4B55"/>
<path d="M0 1.29889L11.6623 9H14L0.370749 0C0.153043 0.102888 0 0.32399 0 0.584252V1.29889Z" fill="#FF4B55"/>
<path d="M23.2993 9L36 0.532269C35.9472 0.232089 35.7033 0 35.3958 0H34.4991L21 9H23.2993Z" fill="#FF4B55"/>
</svg>
