<svg width="36" height="29" viewBox="0 0 36 29" fill="none" xmlns="http://www.w3.org/2000/svg">
<path d="M20.3588 21.5019C19.7048 21.8827 18.8672 22.0925 18.0003 22.0925C17.1334 22.0925 16.2958 21.8828 15.6417 21.5019L4.96379 15.2836C4.96379 15.2836 4 14.7227 4 15.9934C4 17.4364 4 21.7655 4 21.7655C4 21.8232 4 22.1129 4 22.2027C4 25.4737 10.268 29 18 29C25.732 29 32 25.4738 32 22.2027C32 22.1129 32 21.8232 32 21.7655C32 21.7655 32 17.1739 32 15.6433C32 14.6233 31.3148 15.1218 31.3148 15.1218L20.3588 21.5019Z" fill="#004274"/>
<path d="M35.3972 9.99408C36.2009 9.50781 36.2009 8.71206 35.3972 8.2257L19.4614 0.3647C18.6576 -0.121567 17.3423 -0.121567 16.5385 0.3647L0.602842 8.2257C-0.200947 8.71197 -0.200947 9.50772 0.602842 9.99408L16.5385 19.6353C17.3423 20.1216 18.6576 20.1216 19.4614 19.6353" fill="#004274"/>
<path d="M34.8225 24.2596C34.8225 21.5396 34.8225 13.3796 34.8225 13.3796C34.8225 13.3796 34.8306 12.8643 34.5052 13.0345C34.2442 13.171 33.6044 13.5061 33.379 13.6904C33.1188 13.9029 33.1775 14.3801 33.1775 14.3801C33.1775 14.3801 33.1775 21.7897 33.1775 24.2596C33.1775 24.3998 33.0492 24.4668 32.9881 24.5006C32.3973 24.827 32 25.4296 32 26.1203C32 27.1584 32.8954 28 34 28C35.1046 28 36 27.1584 36 26.1203C36 25.4269 35.5998 24.8225 35.0052 24.4969C34.9461 24.4645 34.8225 24.3997 34.8225 24.2596Z" fill="#004274"/>
</svg>
