<svg width="36" height="24" viewBox="0 0 36 24" fill="none" xmlns="http://www.w3.org/2000/svg">
<path d="M35.3792 24H0.620718C0.277945 24 0 23.7172 0 23.3684V0.631607C0 0.282821 0.277945 0 0.620718 0H35.3793C35.7221 0 36 0.282821 36 0.631607V23.3684C35.9999 23.7173 35.722 24 35.3792 24Z" fill="#FF4B55"/>
<path d="M17.9677 10.0321L19.0766 11.1439L20.8082 10.6997C20.905 10.6749 20.9873 10.7588 20.9293 10.8232L19.8924 11.975L20.9787 13.0998C21.0394 13.1627 20.9607 13.2486 20.863 13.2263L19.1132 12.8264L18.0531 13.9657C17.9939 14.0294 17.8627 13.9986 17.8603 13.9204L17.8158 12.5215L16.0743 12.1008C15.977 12.0773 15.9746 11.9723 16.071 11.9464L17.7933 11.4816L17.7771 10.0823C17.7761 10.0041 17.9058 9.96998 17.9677 10.0321Z" fill="#F5F5F5"/>
<path d="M12.9765 16.703C10.1568 16.703 7.86944 14.3738 7.86944 11.4999C7.86944 8.63131 10.1569 6.29686 12.9765 6.29686C14.0256 6.29686 14.9931 6.62541 15.7993 7.18148C15.9228 7.2666 16.0637 7.10144 15.9604 6.99203C14.7554 5.71634 13.05 4.93811 11.1591 5.00386C7.91044 5.11674 5.22106 7.769 5.01346 11.0722C4.77577 14.8557 7.71781 18 11.3808 18C13.1852 18 14.8068 17.2319 15.9648 16.0037C16.0671 15.8952 15.9259 15.7325 15.8036 15.8169C14.9965 16.3742 14.0274 16.703 12.9765 16.703Z" fill="#F5F5F5"/>
</svg>
