<svg width="25" height="25" viewBox="0 0 25 25" fill="none" xmlns="http://www.w3.org/2000/svg">
<path d="M12.5 0C5.60708 0 0 5.60762 0 12.5C0 19.3924 5.60708 25 12.5 25C19.3929 25 25 19.3924 25 12.5C25 5.60762 19.3929 0 12.5 0ZM11.4584 18.2292C11.4584 19.0908 10.7575 19.7917 9.89585 19.7917H6.77085C5.90923 19.7917 5.20835 19.0908 5.20835 18.2292V15.1042C5.20835 14.2425 5.90923 13.5417 6.77085 13.5417H9.89585C10.7575 13.5417 11.4584 14.2425 11.4584 15.1042V18.2292ZM11.4584 9.89585C11.4584 10.7575 10.7575 11.4584 9.89585 11.4584H6.77085C5.90923 11.4584 5.20835 10.7575 5.20835 9.89585V6.77085C5.20835 5.90923 5.90923 5.20835 6.77085 5.20835H9.89585C10.7575 5.20835 11.4584 5.90923 11.4584 6.77085V9.89585ZM19.7917 18.2292C19.7917 19.0908 19.0908 19.7917 18.2292 19.7917H15.1042C14.2425 19.7917 13.5417 19.0908 13.5417 18.2292V15.1042C13.5417 14.2425 14.2425 13.5417 15.1042 13.5417H18.2292C19.0908 13.5417 19.7917 14.2425 19.7917 15.1042V18.2292ZM19.7917 9.89585C19.7917 10.7575 19.0908 11.4584 18.2292 11.4584H15.1042C14.2425 11.4584 13.5417 10.7575 13.5417 9.89585V6.77085C13.5417 5.90923 14.2425 5.20835 15.1042 5.20835H18.2292C19.0908 5.20835 19.7917 5.90923 19.7917 6.77085V9.89585Z" fill="#AEC0CD"/>
</svg>
