<svg width="25" height="25" viewBox="0 0 25 25" fill="none" xmlns="http://www.w3.org/2000/svg">
<path d="M12.5002 0C5.59837 0 0 5.59845 0 12.5C0 19.4042 5.59837 25 12.5002 25C19.4024 25 25 19.4038 25 12.5C25 5.59845 19.402 0 12.5002 0ZM5.85906 18.4589C5.48255 18.4589 5.17675 18.1554 5.17675 17.7789C5.17675 17.5297 5.31703 17.3221 5.51924 17.2036V10.9733H6.19926V17.2036C6.39955 17.3221 6.53984 17.5289 6.53984 17.78C6.53945 18.1554 6.23404 18.4589 5.85906 18.4589ZM18.3367 16.0072C18.3367 16.8126 15.7225 18.0491 12.4998 18.0491C9.27748 18.0491 6.66292 16.8129 6.66292 16.0072V11.984L12.4998 14.068L18.3367 11.984V16.0072ZM12.5002 13.3459L6.53219 11.2145L11.954 10.3797C12.0843 10.5433 12.2735 10.653 12.4975 10.653C12.8893 10.653 13.207 10.3361 13.207 9.94197C13.207 9.54825 12.8912 9.23213 12.4975 9.23213C12.1883 9.23213 11.9333 9.43396 11.8358 9.70842L5.18631 10.7317L2.97272 9.94121L12.4987 6.53879L22.0242 9.94121L12.5002 13.3459Z" fill="#AEC0CD"/>
</svg>
