<svg width="25" height="25" viewBox="0 0 25 25" fill="none" xmlns="http://www.w3.org/2000/svg">
<path d="M21.3394 3.66098C16.4579 -1.22005 8.5431 -1.2206 3.66098 3.66098C-1.2206 8.54255 -1.22005 16.4573 3.66098 21.3394C8.54255 26.2199 16.4573 26.2205 21.3394 21.3394C26.2205 16.4573 26.2199 8.5431 21.3394 3.66098ZM14.1301 17.935C14.1301 18.8356 13.4002 19.5655 12.4997 19.5655C11.5991 19.5655 10.8692 18.8356 10.8692 17.935V11.4132C10.8692 10.5127 11.5991 9.78278 12.4997 9.78278C13.4002 9.78278 14.1301 10.5127 14.1301 11.4132V17.935ZM12.4709 8.62625C11.5317 8.62625 10.9056 7.96102 10.9252 7.13982C10.9056 6.27894 11.5317 5.63382 12.4899 5.63382C13.4486 5.63382 14.0551 6.27948 14.0752 7.13982C14.0747 7.96102 13.4491 8.62625 12.4709 8.62625Z" fill="#AEBFCD"/>
</svg>
