<svg width="269" height="31" viewBox="0 0 269 31" fill="none" xmlns="http://www.w3.org/2000/svg">
<path d="M16.0686 30.64C13.1086 30.64 10.4419 30.0267 8.06859 28.8C5.69526 27.5467 3.82859 25.8133 2.46859 23.6C1.13526 21.36 0.468594 18.8267 0.468594 16C0.468594 13.1733 1.13526 10.6533 2.46859 8.44C3.82859 6.2 5.69526 4.46667 8.06859 3.24C10.4419 1.98667 13.1086 1.36 16.0686 1.36C18.7886 1.36 21.2153 1.84 23.3486 2.8C25.4819 3.76 27.2419 5.14666 28.6286 6.96L22.6686 12.28C20.9353 10.0933 18.8953 9 16.5486 9C14.5753 9 12.9886 9.64 11.7886 10.92C10.5886 12.1733 9.98859 13.8667 9.98859 16C9.98859 18.1333 10.5886 19.84 11.7886 21.12C12.9886 22.3733 14.5753 23 16.5486 23C18.8953 23 20.9353 21.9067 22.6686 19.72L28.6286 25.04C27.2419 26.8533 25.4819 28.24 23.3486 29.2C21.2153 30.16 18.7886 30.64 16.0686 30.64ZM56.4389 28.16C54.9456 28.9333 53.1456 29.5467 51.0389 30C48.9322 30.4267 46.7856 30.64 44.5989 30.64C41.4522 30.64 38.7722 30.28 36.5589 29.56C34.3722 28.8133 32.7189 27.7867 31.5989 26.48C30.4789 25.1467 29.9189 23.6267 29.9189 21.92C29.9189 20.5067 30.2922 19.24 31.0389 18.12C31.8122 17 32.9056 16.1333 34.3189 15.52C33.2522 14.9333 32.4389 14.1733 31.8789 13.24C31.3456 12.28 31.0789 11.2267 31.0789 10.08C31.0789 8.50667 31.5856 7.06667 32.5989 5.76C33.6389 4.42667 35.2122 3.36 37.3189 2.56C39.4522 1.76 42.0656 1.36 45.1589 1.36C47.0522 1.36 48.9056 1.53333 50.7189 1.88C52.5589 2.2 54.1989 2.64 55.6389 3.2L53.0789 10.08C50.5722 9.06667 48.0522 8.56 45.5189 8.56C43.8656 8.56 42.6256 8.74667 41.7989 9.12C40.9989 9.49333 40.5989 10.0133 40.5989 10.68C40.5989 11.24 40.7989 11.6667 41.1989 11.96C41.5989 12.2533 42.2656 12.4 43.1989 12.4H51.3989V19.36H42.5589C41.5189 19.36 40.7322 19.5333 40.1989 19.88C39.6922 20.2 39.4389 20.6667 39.4389 21.28C39.4389 22.72 41.2789 23.44 44.9589 23.44C46.3722 23.44 47.8656 23.2533 49.4389 22.88C51.0389 22.48 52.4522 21.96 53.6789 21.32L56.4389 28.16ZM58.9714 2H68.4114V22.68H81.0514V30H58.9714V2ZM103.722 11.8C101.562 10.6 99.3751 9.77333 97.1617 9.32V30H87.7217V9.32C85.5084 9.77333 83.3217 10.6 81.1617 11.8L78.0417 5.08C80.0417 3.88 82.2817 2.96 84.7617 2.32C87.2417 1.68 89.8017 1.36 92.4417 1.36C95.0817 1.36 97.6417 1.68 100.122 2.32C102.602 2.96 104.842 3.88 106.842 5.08L103.722 11.8Z" fill="white"/>
<path d="M132.534 1.68C136.268 1.68 139.214 2.77333 141.374 4.96C143.534 7.12 144.614 10.2267 144.614 14.28V30H140.614V22.28H124.454V30H120.534V14.28C120.534 10.2267 121.614 7.12 123.774 4.96C125.934 2.77333 128.854 1.68 132.534 1.68ZM140.614 18.8V13.92C140.614 11.0667 139.894 8.90667 138.454 7.44C137.041 5.97333 135.068 5.24 132.534 5.24C130.001 5.24 128.014 5.97333 126.574 7.44C125.161 8.90667 124.454 11.0667 124.454 13.92V18.8H140.614ZM163.446 8.6C165.5 8.6 167.34 9.05333 168.966 9.96C170.593 10.8667 171.86 12.1333 172.766 13.76C173.7 15.3867 174.166 17.2667 174.166 19.4C174.166 21.5333 173.7 23.4267 172.766 25.08C171.86 26.7067 170.593 27.9733 168.966 28.88C167.34 29.7867 165.5 30.24 163.446 30.24C161.873 30.24 160.433 29.9333 159.126 29.32C157.82 28.7067 156.74 27.8133 155.886 26.64V30H152.206V0.319998H156.046V12C156.9 10.88 157.966 10.04 159.246 9.48C160.526 8.89333 161.926 8.6 163.446 8.6ZM163.126 26.88C164.486 26.88 165.7 26.5733 166.766 25.96C167.86 25.32 168.713 24.44 169.326 23.32C169.966 22.1733 170.286 20.8667 170.286 19.4C170.286 17.9333 169.966 16.64 169.326 15.52C168.713 14.3733 167.86 13.4933 166.766 12.88C165.7 12.2667 164.486 11.96 163.126 11.96C161.793 11.96 160.58 12.2667 159.486 12.88C158.393 13.4933 157.54 14.3733 156.926 15.52C156.313 16.64 156.006 17.9333 156.006 19.4C156.006 20.8667 156.313 22.1733 156.926 23.32C157.54 24.44 158.393 25.32 159.486 25.96C160.58 26.5733 161.793 26.88 163.126 26.88ZM183.152 12.36C183.819 11.1333 184.805 10.2 186.112 9.56C187.419 8.92 189.005 8.6 190.872 8.6V12.32C190.659 12.2933 190.365 12.28 189.992 12.28C187.912 12.28 186.272 12.9067 185.072 14.16C183.899 15.3867 183.312 17.1467 183.312 19.44V30H179.472V8.8H183.152V12.36ZM204.49 30.24C202.383 30.24 200.49 29.7733 198.81 28.84C197.13 27.9067 195.81 26.6267 194.85 25C193.916 23.3467 193.45 21.48 193.45 19.4C193.45 17.32 193.916 15.4667 194.85 13.84C195.81 12.1867 197.13 10.9067 198.81 10C200.49 9.06667 202.383 8.6 204.49 8.6C206.596 8.6 208.476 9.06667 210.13 10C211.81 10.9067 213.116 12.1867 214.05 13.84C215.01 15.4667 215.49 17.32 215.49 19.4C215.49 21.48 215.01 23.3467 214.05 25C213.116 26.6267 211.81 27.9067 210.13 28.84C208.476 29.7733 206.596 30.24 204.49 30.24ZM204.49 26.88C205.85 26.88 207.063 26.5733 208.13 25.96C209.223 25.32 210.076 24.44 210.69 23.32C211.303 22.1733 211.61 20.8667 211.61 19.4C211.61 17.9333 211.303 16.64 210.69 15.52C210.076 14.3733 209.223 13.4933 208.13 12.88C207.063 12.2667 205.85 11.96 204.49 11.96C203.13 11.96 201.903 12.2667 200.81 12.88C199.743 13.4933 198.89 14.3733 198.25 15.52C197.636 16.64 197.33 17.9333 197.33 19.4C197.33 20.8667 197.636 22.1733 198.25 23.32C198.89 24.44 199.743 25.32 200.81 25.96C201.903 26.5733 203.13 26.88 204.49 26.88ZM240.8 8.8V30H237.12V26.64C236.267 27.8133 235.187 28.7067 233.88 29.32C232.573 29.9333 231.133 30.24 229.56 30.24C227.507 30.24 225.667 29.7867 224.04 28.88C222.413 27.9733 221.133 26.7067 220.2 25.08C219.293 23.4267 218.84 21.5333 218.84 19.4C218.84 17.2667 219.293 15.3867 220.2 13.76C221.133 12.1333 222.413 10.8667 224.04 9.96C225.667 9.05333 227.507 8.6 229.56 8.6C231.08 8.6 232.48 8.89333 233.76 9.48C235.04 10.04 236.107 10.88 236.96 12V8.8H240.8ZM229.88 26.88C231.213 26.88 232.427 26.5733 233.52 25.96C234.613 25.32 235.467 24.44 236.08 23.32C236.693 22.1733 237 20.8667 237 19.4C237 17.9333 236.693 16.64 236.08 15.52C235.467 14.3733 234.613 13.4933 233.52 12.88C232.427 12.2667 231.213 11.96 229.88 11.96C228.52 11.96 227.293 12.2667 226.2 12.88C225.133 13.4933 224.28 14.3733 223.64 15.52C223.027 16.64 222.72 17.9333 222.72 19.4C222.72 20.8667 223.027 22.1733 223.64 23.32C224.28 24.44 225.133 25.32 226.2 25.96C227.293 26.5733 228.52 26.88 229.88 26.88ZM268.066 0.319998V30H264.386V26.64C263.532 27.8133 262.452 28.7067 261.146 29.32C259.839 29.9333 258.399 30.24 256.826 30.24C254.772 30.24 252.932 29.7867 251.306 28.88C249.679 27.9733 248.399 26.7067 247.466 25.08C246.559 23.4267 246.106 21.5333 246.106 19.4C246.106 17.2667 246.559 15.3867 247.466 13.76C248.399 12.1333 249.679 10.8667 251.306 9.96C252.932 9.05333 254.772 8.6 256.826 8.6C258.346 8.6 259.746 8.89333 261.026 9.48C262.306 10.04 263.372 10.88 264.226 12V0.319998H268.066ZM257.146 26.88C258.479 26.88 259.692 26.5733 260.786 25.96C261.879 25.32 262.732 24.44 263.346 23.32C263.959 22.1733 264.266 20.8667 264.266 19.4C264.266 17.9333 263.959 16.64 263.346 15.52C262.732 14.3733 261.879 13.4933 260.786 12.88C259.692 12.2667 258.479 11.96 257.146 11.96C255.786 11.96 254.559 12.2667 253.466 12.88C252.399 13.4933 251.546 14.3733 250.906 15.52C250.292 16.64 249.986 17.9333 249.986 19.4C249.986 20.8667 250.292 22.1733 250.906 23.32C251.546 24.44 252.399 25.32 253.466 25.96C254.559 26.5733 255.786 26.88 257.146 26.88Z" fill="url(#paint0_linear)"/>
<defs>
<linearGradient id="paint0_linear" x1="10.0976" y1="15.5" x2="358.581" y2="17.5579" gradientUnits="userSpaceOnUse">
<stop stop-color="white"/>
<stop offset="1" stop-color="#77C720"/>
</linearGradient>
</defs>
</svg>
